<mxfile host="app.diagrams.net" agent="Mozilla/5.0 (Windows NT 10.0; Win64; x64) AppleWebKit/537.36 (KHTML, like Gecko) Chrome/138.0.0.0 Safari/537.36" version="27.1.6">
  <diagram name="Page-1" id="TLnSP-ewbdDyyoQ6pei3">
    <mxGraphModel dx="1665" dy="795" grid="1" gridSize="10" guides="1" tooltips="1" connect="1" arrows="1" fold="1" page="1" pageScale="1" pageWidth="850" pageHeight="1100" math="0" shadow="0">
      <root>
        <mxCell id="0" />
        <mxCell id="1" parent="0" />
        <mxCell id="aGUxANdioPzS4dLHn_bX-1" value="" style="ellipse;whiteSpace=wrap;html=1;aspect=fixed;" parent="1" vertex="1">
          <mxGeometry x="80" y="200" width="50" height="50" as="geometry" />
        </mxCell>
        <mxCell id="aGUxANdioPzS4dLHn_bX-2" value="" style="ellipse;whiteSpace=wrap;html=1;aspect=fixed;" parent="1" vertex="1">
          <mxGeometry x="80" y="280" width="50" height="50" as="geometry" />
        </mxCell>
        <mxCell id="aGUxANdioPzS4dLHn_bX-3" value="" style="endArrow=none;dashed=1;html=1;dashPattern=1 3;strokeWidth=2;rounded=0;" parent="1" edge="1">
          <mxGeometry width="50" height="50" relative="1" as="geometry">
            <mxPoint x="104.5" y="410" as="sourcePoint" />
            <mxPoint x="104.5" y="360" as="targetPoint" />
          </mxGeometry>
        </mxCell>
        <mxCell id="aGUxANdioPzS4dLHn_bX-4" value="" style="ellipse;whiteSpace=wrap;html=1;aspect=fixed;" parent="1" vertex="1">
          <mxGeometry x="80" y="440" width="50" height="50" as="geometry" />
        </mxCell>
        <mxCell id="aGUxANdioPzS4dLHn_bX-5" value="&lt;font style=&quot;font-size: 21px;&quot; face=&quot;Times New Roman&quot;&gt;Input Layer&lt;/font&gt;" style="text;strokeColor=none;align=center;fillColor=none;html=1;verticalAlign=middle;whiteSpace=wrap;rounded=0;" parent="1" vertex="1">
          <mxGeometry x="55" y="130" width="105" height="30" as="geometry" />
        </mxCell>
      </root>
    </mxGraphModel>
  </diagram>
</mxfile>
